<?xml version="1.0" encoding="UTF-8"?>
<svg version="1.1" xmlns="http://www.w3.org/2000/svg" width="581" height="320">
<path d="M0 0 C4.87209478 0.72179182 7.8293177 3.18180617 11.375 6.5 C15.49272084 12.07884759 15.94813238 17.74977421 15.375 24.5 C12.68099969 38.65491686 3.86864224 50.40885702 -6.4375 60.0625 C-10.10991539 63.62837774 -11.60425904 66.36019277 -12.9140625 71.2421875 C-15.62862421 79.86315819 -21.98668517 85.17735238 -29.625 89.5 C-37.36849017 92.86038253 -47.10318781 92.76848844 -55 89.875 C-61.70189375 86.7860164 -65.9165509 83.36140439 -68.625 76.5 C-70.59222008 75.11876037 -72.59368328 73.78511874 -74.625 72.5 C-76.5625 70.6875 -76.5625 70.6875 -77.625 68.5 C-77.3125 64.75 -77.3125 64.75 -76.625 61.5 C-77.57761719 61.55800781 -78.53023437 61.61601562 -79.51171875 61.67578125 C-80.76597656 61.72089844 -82.02023438 61.76601562 -83.3125 61.8125 C-84.55386719 61.87050781 -85.79523438 61.92851562 -87.07421875 61.98828125 C-90.625 61.5 -90.625 61.5 -93.54296875 59.73046875 C-96.7165136 54.80641324 -96.35266001 50.23527236 -96.25 44.5 C-96.26933594 43.41976562 -96.28867188 42.33953125 -96.30859375 41.2265625 C-96.27970936 36.54729141 -96.12496249 33.38159697 -93.79296875 29.26953125 C-89.01536581 26.60090717 -84.68196276 26.9642018 -79.3125 27.1875 C-77.77239258 27.22133789 -77.77239258 27.22133789 -76.20117188 27.25585938 C-73.6742821 27.31462425 -71.15039745 27.39672151 -68.625 27.5 C-68.64594727 26.88479492 -68.66689453 26.26958984 -68.68847656 25.63574219 C-68.77177017 22.84066191 -68.82370013 20.04584285 -68.875 17.25 C-68.92527344 15.79787109 -68.92527344 15.79787109 -68.9765625 14.31640625 C-68.98945313 13.38183594 -69.00234375 12.44726562 -69.015625 11.484375 C-69.03657227 10.62553711 -69.05751953 9.76669922 -69.07910156 8.88183594 C-68.45039611 5.58417443 -67.31970986 4.46556619 -64.625 2.5 C-61.75585938 1.98242188 -61.75585938 1.98242188 -58.46875 1.96875 C-57.28152344 1.96359375 -56.09429687 1.9584375 -54.87109375 1.953125 C-53.01677734 1.97632812 -53.01677734 1.97632812 -51.125 2 C-49.88878906 1.98453125 -48.65257812 1.9690625 -47.37890625 1.953125 C-45.59806641 1.96085937 -45.59806641 1.96085937 -43.78125 1.96875 C-42.69650391 1.97326172 -41.61175781 1.97777344 -40.49414062 1.98242188 C-36.95140501 2.62151305 -35.75947231 3.6409004 -33.625 6.5 C-33.3338479 9.23682971 -33.24177582 11.53940039 -33.375 14.25 C-33.39304688 14.94738281 -33.41109375 15.64476563 -33.4296875 16.36328125 C-33.47661446 18.07611539 -33.54835395 19.78823824 -33.625 21.5 C-34.48222656 21.45359375 -35.33945313 21.4071875 -36.22265625 21.359375 C-43.27739308 21.13667756 -48.02662568 20.99695978 -53.625 25.5 C-56.80878967 29.32054761 -57.7578465 33.58467947 -57.625 38.5 C-55.18356465 51.84493303 -44.54943541 62.1151548 -34.625 70.5 C-33.625 71.5 -33.625 71.5 -33.52734375 73.34765625 C-33.55989583 75.3984375 -33.59244792 77.44921875 -33.625 79.5 C-27.47494449 76.60585623 -24.77580774 73.48217875 -21.625 67.5 C-22.346875 68.180625 -23.06875 68.86125 -23.8125 69.5625 C-26.625 71.5 -26.625 71.5 -28.9375 71.43359375 C-32.48412472 70.20155406 -34.78561608 68.05766324 -37.4375 65.5 C-38.22253906 64.7589502 -38.22253906 64.7589502 -39.0234375 64.00292969 C-56.22970736 47.56819405 -56.22970736 47.56819405 -56.625 36.5 C-55.52642121 30.12824303 -52.9808227 26.93007851 -47.8125 23.1875 C-42.49396669 21.51596096 -38.16021239 21.98238742 -33.25 24.375 C-30.94993535 25.61208656 -29.49281078 26.63218922 -27.625 28.5 C-26.7175 27.71625 -25.81 26.9325 -24.875 26.125 C-20.4467443 22.30059735 -16.83831911 20.98820438 -11.0078125 21.11328125 C-5.90664424 21.94117577 -2.13753646 24.98746354 1.4375 28.5625 C2.64950263 31.06730543 2.24633969 31.89550377 1.375 34.5 C-2.07086617 40.82562576 -6.78241496 46.09723032 -11.671875 51.3359375 C-13.75811825 53.54185024 -13.75811825 53.54185024 -15.625 56.5 C-5.37318802 48.21866617 4.4056784 37.01670733 6.375 23.5 C6.52416407 19.32340595 6.36040776 15.564807 5.375 11.5 C3.35677083 11.04427083 1.33854167 10.58854167 -0.6796875 10.1328125 C-2.625 9.5 -2.625 9.5 -4.625 7.5 C-4.875 5 -4.875 5 -4.625 2.5 C-2.625 0.5 -2.625 0.5 0 0 Z M-70.625 55.5 C-70.625 55.83 -70.625 56.16 -70.625 56.5 C-68.645 56.5 -66.665 56.5 -64.625 56.5 C-64.625 56.17 -64.625 55.84 -64.625 55.5 C-66.605 55.5 -68.585 55.5 -70.625 55.5 Z M-68.625 63.5 C-68.955 64.82 -69.285 66.14 -69.625 67.5 C-68.305 67.5 -66.985 67.5 -65.625 67.5 C-65.625 66.18 -65.625 64.86 -65.625 63.5 C-66.615 63.5 -67.605 63.5 -68.625 63.5 Z M-60.625 71.5 C-60.625 74.5 -60.625 74.5 -60.625 74.5 Z M-56.625 77.5 C-56.295 78.16 -55.965 78.82 -55.625 79.5 C-54.965 79.17 -54.305 78.84 -53.625 78.5 C-54.615 78.17 -55.605 77.84 -56.625 77.5 Z M-38.625 80.5 C-34.625 81.5 -34.625 81.5 -34.625 81.5 Z M-47.625 81.5 C-47.625 81.83 -47.625 82.16 -47.625 82.5 C-44.655 82.5 -41.685 82.5 -38.625 82.5 C-38.625 82.17 -38.625 81.84 -38.625 81.5 C-41.595 81.5 -44.565 81.5 -47.625 81.5 Z " fill="#603FB3" transform="translate(201.625,66.5)"/>
<path d="M0 0 C0.91652344 0.01160156 1.83304687 0.02320312 2.77734375 0.03515625 C3.69644531 0.04417969 4.61554688 0.05320312 5.5625 0.0625 C6.27277344 0.07410156 6.98304688 0.08570312 7.71484375 0.09765625 C9.21641249 3.10079373 8.80765579 5.88833147 8.77734375 9.22265625 C8.76832031 10.50398438 8.75929688 11.7853125 8.75 13.10546875 C8.73839844 14.09289062 8.72679687 15.0803125 8.71484375 16.09765625 C9.56949219 15.61619141 9.56949219 15.61619141 10.44140625 15.125 C14.16597926 13.44190258 17.71381171 13.39851397 21.71484375 14.09765625 C24.78546343 15.81134234 27.11935101 17.90667077 28.71484375 21.09765625 C28.81183397 23.04496376 28.84560561 24.99559215 28.84765625 26.9453125 C28.84894531 28.10740234 28.85023438 29.26949219 28.8515625 30.46679688 C28.84769531 31.68560547 28.84382813 32.90441406 28.83984375 34.16015625 C28.84371094 35.38283203 28.84757812 36.60550781 28.8515625 37.86523438 C28.85027344 39.02603516 28.84898437 40.18683594 28.84765625 41.3828125 C28.84652832 42.454104 28.84540039 43.52539551 28.84423828 44.62915039 C28.71484375 47.09765625 28.71484375 47.09765625 27.71484375 48.09765625 C26.21746251 48.19556195 24.71541483 48.22740489 23.21484375 48.22265625 C22.40015625 48.22523438 21.58546875 48.2278125 20.74609375 48.23046875 C18.71484375 48.09765625 18.71484375 48.09765625 17.71484375 47.09765625 C17.55769721 45.46508867 17.46398961 43.82630287 17.3984375 42.1875 C17.35654297 41.19814453 17.31464844 40.20878906 17.27148438 39.18945312 C17.23216797 38.14853516 17.19285156 37.10761719 17.15234375 36.03515625 C17.10916016 34.99037109 17.06597656 33.94558594 17.02148438 32.86914062 C16.9150315 30.27878741 16.81301615 27.68833439 16.71484375 25.09765625 C13.79832201 24.93084516 13.79832201 24.93084516 10.71484375 25.09765625 C8.52068168 26.87127588 8.52068168 26.87127588 8.50366211 29.14477539 C8.52050049 29.96582764 8.53733887 30.78687988 8.5546875 31.6328125 C8.56564453 32.52419922 8.57660156 33.41558594 8.58789062 34.33398438 C8.61979492 35.73293945 8.61979492 35.73293945 8.65234375 37.16015625 C8.68662755 39.00513286 8.71680206 40.850192 8.7421875 42.6953125 C8.76015381 43.51523682 8.77812012 44.33516113 8.79663086 45.17993164 C8.71484375 47.09765625 8.71484375 47.09765625 7.71484375 48.09765625 C5.5 48.30078125 5.5 48.30078125 2.77734375 48.34765625 C1.43349609 48.38632813 1.43349609 48.38632813 0.0625 48.42578125 C-0.71222656 48.3175 -1.48695313 48.20921875 -2.28515625 48.09765625 C-2.94515625 47.10765625 -3.60515625 46.11765625 -4.28515625 45.09765625 C-4.98640625 45.59265625 -5.68765625 46.08765625 -6.41015625 46.59765625 C-9.71270099 48.32072307 -11.6103335 48.49709351 -15.28515625 48.09765625 C-16.27515625 47.43765625 -17.26515625 46.77765625 -18.28515625 46.09765625 C-18.85363281 46.41992188 -19.42210937 46.7421875 -20.0078125 47.07421875 C-23.71902303 48.74203549 -27.29561118 48.68183963 -31.28515625 48.09765625 C-34.83787916 45.98114047 -36.77251148 43.94802476 -38.28515625 40.09765625 C-38.80078125 40.86078125 -39.31640625 41.62390625 -39.84765625 42.41015625 C-43.61483338 46.56371052 -46.84227888 47.83614718 -52.27734375 48.41796875 C-59.79562154 48.68331973 -65.57964263 47.48825456 -72.28515625 44.09765625 C-71.62515625 41.12765625 -70.96515625 38.15765625 -70.28515625 35.09765625 C-69.00640625 35.42765625 -67.72765625 35.75765625 -66.41015625 36.09765625 C-61.3286969 37.24482195 -56.47071298 37.29252059 -51.28515625 37.09765625 C-50.95515625 35.77765625 -50.62515625 34.45765625 -50.28515625 33.09765625 C-51.4659375 32.54078125 -52.64671875 31.98390625 -53.86328125 31.41015625 C-55.42119636 30.64058373 -56.97845404 29.8696793 -58.53515625 29.09765625 C-59.31246094 28.73542969 -60.08976563 28.37320313 -60.890625 28 C-65.88125969 25.48335516 -68.42070568 23.18360791 -70.74829102 18.07470703 C-71.74832946 14.39198247 -71.09702941 11.40125956 -69.28515625 8.09765625 C-65.69275767 4.05839833 -62.21728472 1.32659121 -56.68359375 0.89453125 C-49.95002453 0.79013483 -44.50024541 1.46095176 -38.28515625 4.09765625 C-38.39877887 5.57774035 -38.52638533 7.05675699 -38.66015625 8.53515625 C-38.72976562 9.35886719 -38.799375 10.18257812 -38.87109375 11.03125 C-39.00773437 11.71316406 -39.144375 12.39507812 -39.28515625 13.09765625 C-42.00962716 14.45989171 -43.3611316 13.45123378 -46.1328125 12.578125 C-50.13453697 11.68481809 -54.20855969 11.95001291 -58.28515625 12.09765625 C-58.04651676 14.0442147 -58.04651676 14.0442147 -57.28515625 16.09765625 C-54.68447603 17.57578298 -52.19566505 18.83207712 -49.47265625 20.03515625 C-44.26158784 22.34655459 -40.44958227 24.10543199 -37.28515625 29.09765625 C-36.53515625 31.91015625 -36.53515625 31.91015625 -36.28515625 34.09765625 C-35.62515625 33.31390625 -34.96515625 32.53015625 -34.28515625 31.72265625 C-29.59608213 27.6197164 -24.46577473 26.7113676 -18.28515625 27.09765625 C-18.28515625 26.10765625 -18.28515625 25.11765625 -18.28515625 24.09765625 C-25.83554047 24.75115258 -25.83554047 24.75115258 -33.28515625 26.09765625 C-35.1429239 22.96267333 -35.48656101 20.72294193 -35.28515625 17.09765625 C-28.67078955 14.35391895 -22.44602985 13.08892638 -15.28515625 14.09765625 C-11.17362655 16.11735505 -8.81782667 17.78658327 -7.28515625 22.09765625 C-7.04789724 25.01925703 -7.09701773 27.9190005 -7.16015625 30.84765625 C-7.16917969 31.64042969 -7.17820312 32.43320313 -7.1875 33.25 C-7.21098613 35.19934906 -7.24685488 37.148542 -7.28515625 39.09765625 C-6.29515625 39.09765625 -5.30515625 39.09765625 -4.28515625 39.09765625 C-4.24757202 37.37881226 -4.24757202 37.37881226 -4.20922852 35.62524414 C-4.11532519 31.38912027 -4.0150635 27.15316697 -3.9128418 22.91723633 C-3.86942805 21.08101378 -3.82775786 19.24474917 -3.7878418 17.40844727 C-3.73029456 14.77477314 -3.66655627 12.14131204 -3.6015625 9.5078125 C-3.58485001 8.68177017 -3.56813751 7.85572784 -3.55091858 7.00465393 C-3.37103993 0.14406154 -3.37103993 0.14406154 0 0 Z M-26.28515625 36.09765625 C-25.95515625 37.41765625 -25.62515625 38.73765625 -25.28515625 40.09765625 C-23.30515625 39.76765625 -21.32515625 39.43765625 -19.28515625 39.09765625 C-18.95515625 37.44765625 -18.62515625 35.79765625 -18.28515625 34.09765625 C-22.00114816 33.89679182 -23.0572407 33.94571255 -26.28515625 36.09765625 Z " fill="#1DBBAD" transform="translate(294.28515625,89.90234375)"/>
<path d="M0 0 C10.72427501 0.02435891 20.16644203 0.61920476 28.1953125 8.46484375 C29.96973818 10.58765144 31.03413899 12.55488585 31.6875 15.25 C32.0175 14.92 32.3475 14.59 32.6875 14.25 C34.76012076 14.16232888 36.83570294 14.14304127 38.91015625 14.15234375 C40.17021484 14.15556641 41.43027344 14.15878906 42.72851562 14.16210938 C44.06901109 14.17046597 45.40950588 14.17893093 46.75 14.1875 C48.09439942 14.1925134 49.4388006 14.19707658 50.78320312 14.20117188 C54.08467941 14.21300512 57.38606803 14.22949029 60.6875 14.25 C60.36108035 20.686326 58.05038471 24.19378338 54.125 29.1875 C53.60486328 29.87134766 53.08472656 30.55519531 52.54882812 31.25976562 C51.27382575 32.93247516 49.98230135 34.59256895 48.6875 36.25 C52.6475 36.58 56.6075 36.91 60.6875 37.25 C60.78515625 44.18359375 60.78515625 44.18359375 60.6875 46.25 C58.95150804 47.98599196 56.58688346 47.38021016 54.2265625 47.3828125 C52.55980469 47.38474609 52.55980469 47.38474609 50.859375 47.38671875 C49.68890625 47.38285156 48.5184375 47.37898438 47.3125 47.375 C45.56839844 47.38080078 45.56839844 47.38080078 43.7890625 47.38671875 C42.1184375 47.38478516 42.1184375 47.38478516 40.4140625 47.3828125 C38.87613037 47.38112061 38.87613037 47.38112061 37.30712891 47.37939453 C34.6875 47.25 34.6875 47.25 31.6875 46.25 C32.09880246 40.50619716 33.54260321 37.4708312 37.125 33 C37.92808594 31.98421875 38.73117187 30.9684375 39.55859375 29.921875 C40.61240234 28.59929687 40.61240234 28.59929687 41.6875 27.25 C42.3475 26.26 43.0075 25.27 43.6875 24.25 C40.3875 23.92 37.0875 23.59 33.6875 23.25 C33.45675781 24.11882812 33.22601563 24.98765625 32.98828125 25.8828125 C29.16429709 39.39523084 29.16429709 39.39523084 22.80078125 43.453125 C15.88896551 47.19208818 9.14329548 47.41228611 1.4375 47.375 C0.6228125 47.37886719 -0.191875 47.38273437 -1.03125 47.38671875 C-7.05902201 47.376739 -7.05902201 47.376739 -9.3125 46.25 C-9.33777062 39.85962769 -9.35533317 33.46926817 -9.36743164 27.07885742 C-9.37247308 24.90307127 -9.37930607 22.72728853 -9.38793945 20.55151367 C-9.40001338 17.43146933 -9.40573005 14.31146962 -9.41015625 11.19140625 C-9.41531754 10.21224747 -9.42047882 9.23308868 -9.42579651 8.22425842 C-9.42587204 7.32340012 -9.42594757 6.42254181 -9.42602539 5.49438477 C-9.428246 4.69718521 -9.43046661 3.89998566 -9.43275452 3.07862854 C-9.12738429 -1.56492861 -3.54544777 0.01173989 0 0 Z M2.6875 10.25 C2.6875 19.16 2.6875 28.07 2.6875 37.25 C10.83964646 37.4128506 10.83964646 37.4128506 17.6875 34.25 C20.48888143 29.55090858 21.2680944 25.66888103 20.6875 20.25 C19.39047132 15.67225171 18.60274015 13.80632244 14.5 11.3125 C10.06274241 9.89205568 10.06274241 9.89205568 2.6875 10.25 Z " fill="#6246AD" transform="translate(369.3125,90.75)"/>
<path d="M0 0 C4.34984309 1.8889457 8.8792413 4.61709869 11 9 C9.90116871 16.18003459 4.07600272 22.02735271 -0.6875 27.125 C-4.27352904 30.97532599 -6.13967805 34.1424927 -8 39 C-8.99 39.33 -9.98 39.66 -11 40 C-11 41.32 -11 42.64 -11 44 C-12.35546875 45.73828125 -12.35546875 45.73828125 -14.1875 47.3125 C-14.77917969 47.84488281 -15.37085938 48.37726563 -15.98046875 48.92578125 C-18 50 -18 50 -20.375 49.98046875 C-23.85387167 48.68106876 -26.18443942 46.53468634 -28.8125 44 C-29.33585937 43.5059668 -29.85921875 43.01193359 -30.3984375 42.50292969 C-47.60470736 26.06819405 -47.60470736 26.06819405 -48 15 C-46.90142121 8.62824303 -44.3558227 5.43007851 -39.1875 1.6875 C-33.86896669 0.01596096 -29.53521239 0.48238742 -24.625 2.875 C-22.32493535 4.11208656 -20.86781078 5.13218922 -19 7 C-18.0925 6.21625 -17.185 5.4325 -16.25 4.625 C-11.18065 0.246925 -6.64360318 -1.07822412 0 0 Z " fill="#10B9AA" transform="translate(193,88)"/>
<path d="M0 0 C4.87209478 0.72179182 7.8293177 3.18180617 11.375 6.5 C15.49272084 12.07884759 15.94813238 17.74977421 15.375 24.5 C12.68099969 38.65491686 3.86864224 50.40885702 -6.4375 60.0625 C-10.10991539 63.62837774 -11.60425904 66.36019277 -12.9140625 71.2421875 C-15.62862421 79.86315819 -21.98668517 85.17735238 -29.625 89.5 C-37.36849017 92.86038253 -47.10318781 92.76848844 -55 89.875 C-61.70189375 86.7860164 -65.9165509 83.36140439 -68.625 76.5 C-70.59222008 75.11876037 -72.59368328 73.78511874 -74.625 72.5 C-76.74104281 70.58873553 -77.54188525 69.45779856 -77.7890625 66.609375 C-77.59112982 62.49846559 -77.09496135 60.93639268 -74 58.0625 C-70.20740726 56.30667003 -67.82672307 55.27490769 -63.625 55.5 C-59.93579125 58.24622714 -57.96618828 61.39113809 -56.625 65.75 C-56.625 68.5 -56.625 68.5 -58.625 71.5 C-59.615 72.49 -59.615 72.49 -60.625 73.5 C-59.573125 73.95375 -58.52125 74.4075 -57.4375 74.875 C-56.54998047 75.25785156 -56.54998047 75.25785156 -55.64453125 75.6484375 C-54.97808594 75.92945313 -54.31164062 76.21046875 -53.625 76.5 C-52.861875 76.8609375 -52.09875 77.221875 -51.3125 77.59375 C-48.02125059 78.70358992 -45.27754766 78.69500096 -41.8125 78.625 C-40.07033203 78.59792969 -40.07033203 78.59792969 -38.29296875 78.5703125 C-37.41253906 78.54710937 -36.53210938 78.52390625 -35.625 78.5 C-35.41529441 74.35906302 -35.41529441 74.35906302 -36.625 70.5 C-35.635 70.83 -34.645 71.16 -33.625 71.5 C-33.625 74.14 -33.625 76.78 -33.625 79.5 C-27.52686458 76.63028922 -24.57392284 73.56102718 -21.625 67.5 C-21.25375 66.38625 -20.8825 65.2725 -20.5 64.125 C-19.625 61.5 -19.625 61.5 -16.625 59.5 C-16.295 58.51 -15.965 57.52 -15.625 56.5 C-14.0234375 54.9921875 -14.0234375 54.9921875 -12 53.375 C-3.22820067 45.87197879 4.67435863 35.17258393 6.375 23.5 C6.52416407 19.32340595 6.36040776 15.564807 5.375 11.5 C3.35677083 11.04427083 1.33854167 10.58854167 -0.6796875 10.1328125 C-2.625 9.5 -2.625 9.5 -4.625 7.5 C-4.875 5 -4.875 5 -4.625 2.5 C-2.625 0.5 -2.625 0.5 0 0 Z M-68.625 63.5 C-68.955 64.82 -69.285 66.14 -69.625 67.5 C-68.305 67.5 -66.985 67.5 -65.625 67.5 C-65.625 66.18 -65.625 64.86 -65.625 63.5 C-66.615 63.5 -67.605 63.5 -68.625 63.5 Z M-56.625 77.5 C-56.295 78.16 -55.965 78.82 -55.625 79.5 C-54.965 79.17 -54.305 78.84 -53.625 78.5 C-54.615 78.17 -55.605 77.84 -56.625 77.5 Z M-38.625 80.5 C-34.625 81.5 -34.625 81.5 -34.625 81.5 Z M-47.625 81.5 C-47.625 81.83 -47.625 82.16 -47.625 82.5 C-44.655 82.5 -41.685 82.5 -38.625 82.5 C-38.625 82.17 -38.625 81.84 -38.625 81.5 C-41.595 81.5 -44.565 81.5 -47.625 81.5 Z " fill="#6B5CA5" transform="translate(201.625,66.5)"/>
<path d="M0 0 C2.79736328 -0.34057617 2.79736328 -0.34057617 6.3203125 -0.29296875 C7.57714844 -0.28330078 8.83398438 -0.27363281 10.12890625 -0.26367188 C12.10697266 -0.2259668 12.10697266 -0.2259668 14.125 -0.1875 C15.46482903 -0.17245483 16.80467404 -0.15876613 18.14453125 -0.14648438 C21.43008842 -0.11102872 24.71484582 -0.06160849 28 0 C27.67358035 6.436326 25.36288471 9.94378338 21.4375 14.9375 C20.91736328 15.62134766 20.39722656 16.30519531 19.86132812 17.00976562 C18.58632575 18.68247516 17.29480135 20.34256895 16 22 C19.96 22.33 23.92 22.66 28 23 C28.09765625 29.93359375 28.09765625 29.93359375 28 32 C26.26400804 33.73599196 23.89938346 33.13021016 21.5390625 33.1328125 C19.87230469 33.13474609 19.87230469 33.13474609 18.171875 33.13671875 C17.00140625 33.13285156 15.8309375 33.12898438 14.625 33.125 C12.88089844 33.13080078 12.88089844 33.13080078 11.1015625 33.13671875 C9.4309375 33.13478516 9.4309375 33.13478516 7.7265625 33.1328125 C6.70127441 33.13168457 5.67598633 33.13055664 4.61962891 33.12939453 C2 33 2 33 -1 32 C-0.58869754 26.25619716 0.85510321 23.2208312 4.4375 18.75 C5.24058594 17.73421875 6.04367187 16.7184375 6.87109375 15.671875 C7.57363281 14.79015625 8.27617187 13.9084375 9 13 C9.66 12.01 10.32 11.02 11 10 C7.7 9.67 4.4 9.34 1 9 C0.76925781 9.86882812 0.53851563 10.73765625 0.30078125 11.6328125 C-3.03377591 23.41579315 -3.03377591 23.41579315 -8 28 C-8.99 28.33 -9.98 28.66 -11 29 C-10.67 28.01 -10.34 27.02 -10 26 C-9.34 26 -8.68 26 -8 26 C-8 25.01 -8 24.02 -8 23 C-9.32 23 -10.64 23 -12 23 C-12 22.34 -12 21.68 -12 21 C-13.65 21.33 -15.3 21.66 -17 22 C-15.75 19.5 -15.75 19.5 -14 17 C-11.66666667 17 -9.33333333 17 -7 17 C-6.67 15.35 -6.34 13.7 -6 12 C-5.01 12 -4.02 12 -3 12 C-2.95101563 11.38511719 -2.90203125 10.77023438 -2.8515625 10.13671875 C-2.77679688 9.32847656 -2.70203125 8.52023438 -2.625 7.6875 C-2.52058594 6.48673828 -2.52058594 6.48673828 -2.4140625 5.26171875 C-2 3 -2 3 0 0 Z " fill="#6548B3" transform="translate(402,105)"/>
<path d="M0 0 C4.81695869 4.21483885 4.81695869 4.21483885 5.23974609 7.76074219 C5.2953183 10.18042758 5.26120854 12.58084782 5.1875 15 C5.16719727 16.26070312 5.16719727 16.26070312 5.14648438 17.546875 C5.11123464 19.61485938 5.0574302 21.68251271 5 23.75 C6.32 23.75 7.64 23.75 9 23.75 C9 25.73 9 27.71 9 29.75 C4.18252477 32.6874849 1.48172906 32.88771735 -4 31.75 C-6.9254644 31.5263932 -6.9254644 31.5263932 -9 32.75 C-14.06572941 33.37761249 -17.78621202 33.59222023 -22.0625 30.625 C-24.24657687 27.38411175 -25.07985369 25.6628306 -25 21.75 C-22.59494815 16.84369422 -20.12088911 14.58579043 -15 12.75 C-12.006355 12.25024257 -9.02788784 11.94513055 -6 11.75 C-6 10.76 -6 9.77 -6 8.75 C-7.58367747 8.89204741 -9.16693318 9.03880153 -10.75 9.1875 C-11.63171875 9.26871094 -12.5134375 9.34992188 -13.421875 9.43359375 C-15.69350452 9.71238465 -17.79851823 10.13790577 -20 10.75 C-22.29379749 7.30930376 -23 6.02709699 -23 1.75 C-15.61259516 -1.31440497 -7.6444679 -3.18519496 0 0 Z M-12.25 20.75 C-12.8275 21.41 -13.405 22.07 -14 22.75 C-13.67 23.41 -13.34 24.07 -13 24.75 C-11.02 24.42 -9.04 24.09 -7 23.75 C-6.67 22.1 -6.34 20.45 -6 18.75 C-10.00346023 18.30709077 -10.00346023 18.30709077 -12.25 20.75 Z " fill="#29B4A8" transform="translate(349,105.25)"/>
<path d="M0 0 C4.87209478 0.72179182 7.8293177 3.18180617 11.375 6.5 C14.56623728 10.8236118 15.51819313 14.68760518 15.5 20 C15.50386719 21.12921875 15.50386719 21.12921875 15.5078125 22.28125 C15.37658417 24.473535 14.97831338 26.39319137 14.375 28.5 C13.715 28.5 13.055 28.5 12.375 28.5 C12.18164062 29.12648438 11.98828125 29.75296875 11.7890625 30.3984375 C11.52867187 31.21570313 11.26828125 32.03296875 11 32.875 C10.74476563 33.68710938 10.48953125 34.49921875 10.2265625 35.3359375 C9.375 37.5 9.375 37.5 7.375 39.5 C7.045 38.84 6.715 38.18 6.375 37.5 C5.385 38.16 4.395 38.82 3.375 39.5 C4.1428729 34.89276258 4.1428729 34.89276258 5.40234375 32.76171875 C6.74916295 29.62995843 6.60236308 26.95810934 6.5625 23.5625 C6.55605469 22.35722656 6.54960937 21.15195313 6.54296875 19.91015625 C6.39869792 16.98112291 6.04998236 14.34572564 5.375 11.5 C3.35677083 11.04427083 1.33854167 10.58854167 -0.6796875 10.1328125 C-2.625 9.5 -2.625 9.5 -4.625 7.5 C-4.875 5 -4.875 5 -4.625 2.5 C-2.625 0.5 -2.625 0.5 0 0 Z " fill="#533AA7" transform="translate(201.625,66.5)"/>
<path d="M0 0 C2.79222188 3.01861825 4.07569064 5.58343701 5.3125 9.5 C5 12.4375 5 12.4375 4.3125 14.5 C3.3225 14.83 2.3325 15.16 1.3125 15.5 C0.9825 16.16 0.6525 16.82 0.3125 17.5 C-0.6775 17.5 -1.6675 17.5 -2.6875 17.5 C-2.6875 18.16 -2.6875 18.82 -2.6875 19.5 C-3.3475 19.5 -4.0075 19.5 -4.6875 19.5 C-4.6875 20.16 -4.6875 20.82 -4.6875 21.5 C-5.3475 21.5 -6.0075 21.5 -6.6875 21.5 C-6.6875 20.84 -6.6875 20.18 -6.6875 19.5 C-7.615625 18.88125 -8.54375 18.2625 -9.5 17.625 C-14.30912162 14.41891892 -14.30912162 14.41891892 -15.6875 11.5 C-15.93737701 8.62046492 -15.69146618 6.21628629 -14.6875 3.5 C-10.33169099 -0.45061748 -5.47863652 -3.05784364 0 0 Z M-6.6875 6.5 C-7.0175 7.82 -7.3475 9.14 -7.6875 10.5 C-6.3675 10.5 -5.0475 10.5 -3.6875 10.5 C-3.6875 9.18 -3.6875 7.86 -3.6875 6.5 C-4.6775 6.5 -5.6675 6.5 -6.6875 6.5 Z " fill="#2DB2AF" transform="translate(139.6875,123.5)"/>
<path d="M0 0 C0.33 0 0.66 0 1 0 C0.45144652 4.571279 -0.41744803 8.67435795 -2 13 C-1.01 12.34 -0.02 11.68 1 11 C1.33 11.33 1.66 11.66 2 12 C3.32 9.03 4.64 6.06 6 3 C7.42092434 8.68369735 4.865589 11.77210327 2.08984375 16.6171875 C-3.1673195 25.12691344 -9.82237581 32.09041986 -17 39 C-17.66 39.66 -18.32 40.32 -19 41 C-18.42647107 37.12867972 -16.51295648 34.91827204 -14 32 C-16.97 34.475 -16.97 34.475 -20 37 C-20 36.01 -20 35.02 -20 34 C-19.34 34 -18.68 34 -18 34 C-17.67 33.01 -17.34 32.02 -17 31 C-16.34 31 -15.68 31 -15 31 C-15.33 30.34 -15.66 29.68 -16 29 C-16.6496875 29.99 -16.6496875 29.99 -17.3125 31 C-17.869375 31.66 -18.42625 32.32 -19 33 C-19.99 33 -20.98 33 -22 33 C-22 32.34 -22 31.68 -22 31 C-20.49609375 29.58984375 -20.49609375 29.58984375 -18.4375 27.9375 C-9.69600081 20.44478641 -3.64577189 10.93731568 0 0 Z " fill="#6C5FA8" transform="translate(208,92)"/>
<path d="M0 0 C2.64 0.33 5.28 0.66 8 1 C7.21625 1.7425 6.4325 2.485 5.625 3.25 C2.71135501 6.28892052 2.71135501 6.28892052 1 10 C1.33 10.99 1.66 11.98 2 13 C4.64 13 7.28 13 10 13 C10 12.34 10 11.68 10 11 C11.423125 11.0309375 11.423125 11.0309375 12.875 11.0625 C15.90666283 11.22551826 15.90666283 11.22551826 18 10 C18.66 12.31 19.32 14.62 20 17 C19 18 19 18 15.4375 18.0625 C14.303125 18.041875 13.16875 18.02125 12 18 C11.67 17.01 11.34 16.02 11 15 C9.96875 15.66 8.9375 16.32 7.875 17 C4.41276952 18.96146525 2.02926818 19.61314951 -2 19 C-4.8125 18 -4.8125 18 -7 16 C-8.01158523 13.28283503 -8.29278585 10.88281453 -8 8 C-5.91482075 4.44747239 -3.83275898 2.50572674 0 1 C0 0.67 0 0.34 0 0 Z " fill="#08B8A9" transform="translate(334,118)"/>
<path d="M0 0 C2 1 2 1 2.9375 2.75 C3 5 3 5 0.875 7.625 C-1.77023761 9.81019628 -3.75999807 10.98171368 -7 12 C-7.02126953 12.90492187 -7.02126953 12.90492187 -7.04296875 13.828125 C-7.43455972 20.3899197 -7.43455972 20.3899197 -10.375 23.5625 C-13 25 -13 25 -16 25 C-17.80234877 12.99157988 -17.80234877 12.99157988 -14 7 C-9.93456562 2.45996645 -6.47727063 -1.23376583 0 0 Z " fill="#57449A" transform="translate(189,67)"/>
<path d="M0 0 C0.33 0.99 0.66 1.98 1 3 C1.99 3 2.98 3 4 3 C4 2.01 4 1.02 4 0 C6.95409701 1.37154504 9.44008376 2.98863724 12 5 C12.33 4.34 12.66 3.68 13 3 C15.3548854 9.23352019 14.87557031 14.45688671 14 21 C13.67 20.34 13.34 19.68 13 19 C12.01 19.33 11.02 19.66 10 20 C9.87625 20.639375 9.7525 21.27875 9.625 21.9375 C9.41875 22.618125 9.2125 23.29875 9 24 C6.4375 25.25 6.4375 25.25 4 26 C3.08472397 21.88125788 3.06271562 18.18268439 3.25 14 C3.31154893 9.87622189 3.20505855 7.44136122 0.5 4.25 C-0.325 3.5075 -1.15 2.765 -2 2 C-1.34 1.34 -0.68 0.68 0 0 Z " fill="#5A3AAC" transform="translate(386,98)"/>
<path d="M0 0 C1.485 0.495 1.485 0.495 3 1 C3 3.64 3 6.28 3 9 C-0.65079826 10.61064629 -4.0507432 11.44894091 -8 12 C-7.34 12.66 -6.68 13.32 -6 14 C-6.91523438 13.91621094 -7.83046875 13.83242187 -8.7734375 13.74609375 C-9.96195313 13.64425781 -11.15046875 13.54242188 -12.375 13.4375 C-14.15003906 13.28087891 -14.15003906 13.28087891 -15.9609375 13.12109375 C-18.91898631 12.75846404 -18.91898631 12.75846404 -21 14 C-20.67 14.66 -20.34 15.32 -20 16 C-17.47266765 16.65555119 -17.47266765 16.65555119 -15 17 C-16.98 17.99 -16.98 17.99 -19 19 C-29.12414109 12.8236372 -29.12414109 12.8236372 -31 8 C-30.67 7.34 -30.34 6.68 -30 6 C-29.34 6 -28.68 6 -28 6 C-28 5.34 -28 4.68 -28 4 C-24.89624364 2.6343472 -23.82115909 3.06828471 -20.5625 4.3125 C-18.60812712 5.23825558 -16.65431068 6.16520187 -14.703125 7.09765625 C-11.40564027 8.19840621 -8.65584024 8.19506748 -5.1875 8.125 C-4.02605469 8.10695312 -2.86460937 8.08890625 -1.66796875 8.0703125 C-0.34732422 8.03550781 -0.34732422 8.03550781 1 8 C1.20970559 3.85906302 1.20970559 3.85906302 0 0 Z M-20 7 C-19.67 7.66 -19.34 8.32 -19 9 C-18.34 8.67 -17.68 8.34 -17 8 C-17.99 7.67 -18.98 7.34 -20 7 Z " fill="#624FA3" transform="translate(165,137)"/>
<path d="M0 0 C2.70556641 -0.34057617 2.70556641 -0.34057617 6.1015625 -0.29296875 C7.91914063 -0.2784668 7.91914063 -0.2784668 9.7734375 -0.26367188 C11.04445313 -0.23853516 12.31546875 -0.21339844 13.625 -0.1875 C14.90375 -0.17396484 16.1825 -0.16042969 17.5 -0.14648438 C20.66708282 -0.11103196 23.83333541 -0.06161441 27 0 C27 0.33 27 0.66 27 1 C18.75 1 10.5 1 2 1 C2 2.98 2 4.96 2 7 C2.66 7 3.32 7 4 7 C4 7.66 4 8.32 4 9 C3.01 9 2.02 9 1 9 C0.76925781 9.86882812 0.53851563 10.73765625 0.30078125 11.6328125 C-3.03377591 23.41579315 -3.03377591 23.41579315 -8 28 C-8.99 28.33 -9.98 28.66 -11 29 C-10.67 28.01 -10.34 27.02 -10 26 C-9.34 26 -8.68 26 -8 26 C-8 25.01 -8 24.02 -8 23 C-9.32 23 -10.64 23 -12 23 C-12 22.34 -12 21.68 -12 21 C-13.65 21.33 -15.3 21.66 -17 22 C-15.75 19.5 -15.75 19.5 -14 17 C-11.66666667 17 -9.33333333 17 -7 17 C-6.67 15.35 -6.34 13.7 -6 12 C-5.01 12 -4.02 12 -3 12 C-2.95101563 11.38511719 -2.90203125 10.77023438 -2.8515625 10.13671875 C-2.77679688 9.32847656 -2.70203125 8.52023438 -2.625 7.6875 C-2.52058594 6.48673828 -2.52058594 6.48673828 -2.4140625 5.26171875 C-2 3 -2 3 0 0 Z " fill="#775EB4" transform="translate(402,105)"/>
<path d="M0 0 C0.33 1.32 0.66 2.64 1 4 C0.01 4.495 0.01 4.495 -1 5 C-1 5.99 -1 6.98 -1 8 C1.97 8.495 1.97 8.495 5 9 C4.67 9.66 4.34 10.32 4 11 C3.34 11 2.68 11 2 11 C1.67 12.32 1.34 13.64 1 15 C-6.11111111 15.35555556 -6.11111111 15.35555556 -9.5 14 C-11.45407251 11.39456999 -11.55366757 9.14380222 -11.39453125 5.9375 C-10.7924921 2.98095131 -9.40715761 1.7193983 -7 0 C-3.86650268 -1.04449911 -3.01031744 -0.93423645 0 0 Z " fill="#07BAAB" transform="translate(270,121)"/>
<path d="M0 0 C4.84662656 0.71801875 7.91223922 3.10871823 11.375 6.5 C12.875 9.375 12.875 9.375 13.375 11.5 C11.725 10.18 10.075 8.86 8.375 7.5 C9.035 8.82 9.695 10.14 10.375 11.5 C9.715 12.16 9.055 12.82 8.375 13.5 C8.375 14.16 8.375 14.82 8.375 15.5 C7.715 15.5 7.055 15.5 6.375 15.5 C6.045 14.18 5.715 12.86 5.375 11.5 C3.35677083 11.04427083 1.33854167 10.58854167 -0.6796875 10.1328125 C-2.625 9.5 -2.625 9.5 -4.625 7.5 C-4.875 5 -4.875 5 -4.625 2.5 C-2.625 0.5 -2.625 0.5 0 0 Z " fill="#6652A7" transform="translate(201.625,66.5)"/>
<path d="M0 0 C3.3522618 -0.06573062 6.45695132 -0.11107814 9.75 0.5625 C12.15493756 1.22140353 12.15493756 1.22140353 15 0 C17.3406065 0.27769908 19.67624308 0.60539977 22 1 C22 2.65 22 4.3 22 6 C18.89936477 7.03354508 16.68555932 7.13364996 13.4375 7.125 C12.46683594 7.12757813 11.49617187 7.13015625 10.49609375 7.1328125 C8 7 8 7 6 6 C6 6.66 6 7.32 6 8 C3.07175348 7.02391783 1.38573379 5.89213369 -1 4 C-0.67 2.68 -0.34 1.36 0 0 Z M17 2 C17.66 2.66 18.32 3.32 19 4 C19 3.34 19 2.68 19 2 C18.34 2 17.68 2 17 2 Z " fill="#4F3D9A" transform="translate(145,149)"/>
<path d="M0 0 C0.33 0.66 0.66 1.32 1 2 C3.31 2 5.62 2 8 2 C6.35 3.32 4.7 4.64 3 6 C4.32 6.66 5.64 7.32 7 8 C4.69 8 2.38 8 0 8 C0 8.66 0 9.32 0 10 C-2.31 10.66 -4.62 11.32 -7 12 C-8.85776765 8.86501708 -9.20140476 6.62528568 -9 3 C-6.03 2.01 -3.06 1.02 0 0 Z " fill="#0EBCAE" transform="translate(268,104)"/>
<path d="M0 0 C0.99 0.33 1.98 0.66 3 1 C3 1.66 3 2.32 3 3 C3.99 3 4.98 3 6 3 C6.64674034 6.35536573 7.13410718 9.57758485 7 13 C4.75 15.625 4.75 15.625 2 17 C1.01 17 0.02 17 -1 17 C-2.51708428 5.47835991 -2.51708428 5.47835991 0 0 Z " fill="#534197" transform="translate(174,75)"/>
<path d="M0 0 C0.66 0.33 1.32 0.66 2 1 C0.71937515 2.7074998 -0.61767557 4.37373596 -2 6 C-2.66 6 -3.32 6 -4 6 C-3.67 6.66 -3.34 7.32 -3 8 C-1.35 6.35 0.3 4.7 2 3 C2.66 3.33 3.32 3.66 4 4 C3.3503125 4.58007812 3.3503125 4.58007812 2.6875 5.171875 C2.130625 5.69265625 1.57375 6.2134375 1 6.75 C0.443125 7.26046875 -0.11375 7.7709375 -0.6875 8.296875 C-2.40694193 10.1696916 -2.40694193 10.1696916 -2 14 C-2.66 14 -3.32 14 -4 14 C-4.66 15.32 -5.32 16.64 -6 18 C-6.33 17.01 -6.66 16.02 -7 15 C-9.51083114 16.25541557 -9.87125446 17.50063488 -11 20 C-12.43396756 15.69809731 -11.47891366 12.22434381 -10 8 C-8.0625 5.9375 -8.0625 5.9375 -6 5 C-5.01 5 -4.02 5 -3 5 C-2.690625 4.360625 -2.38125 3.72125 -2.0625 3.0625 C-1 1 -1 1 0 0 Z " fill="#454097" transform="translate(192,120)"/>
<path d="M0 0 C0.33 0 0.66 0 1 0 C0.45144652 4.571279 -0.41744803 8.67435795 -2 13 C-1.01 12.34 -0.02 11.68 1 11 C1.33 11.33 1.66 11.66 2 12 C3.32 9.03 4.64 6.06 6 3 C7.24314292 7.97257169 6.29949777 9.05007203 3.875 13.4375 C2.97394531 15.10619141 2.97394531 15.10619141 2.0546875 16.80859375 C-0.00312489 20.00485369 -2.21797611 22.42494328 -5 25 C-6 19.25 -6 19.25 -6 17 C-6.33 16.34 -6.66 15.68 -7 15 C-5.8203125 12.28515625 -5.8203125 12.28515625 -4.125 9.0625 C-1.81191414 4.6381304 -1.81191414 4.6381304 0 0 Z " fill="#6A5CAA" transform="translate(208,92)"/>
<path d="M0 0 C0.99 0.33 1.98 0.66 3 1 C3 3.64 3 6.28 3 9 C-0.65079826 10.61064629 -4.0507432 11.44894091 -8 12 C-7.34 12.66 -6.68 13.32 -6 14 C-7.77226453 13.71715982 -9.542788 13.42339502 -11.3125 13.125 C-12.29863281 12.96257812 -13.28476563 12.80015625 -14.30078125 12.6328125 C-17 12 -17 12 -20 10 C-19.67 9.34 -19.34 8.68 -19 8 C-19.99 6.68 -20.98 5.36 -22 4 C-17 6 -17 6 -14.75 7.0625 C-11.42594932 8.1956991 -8.69086287 8.19577501 -5.1875 8.125 C-4.02605469 8.10695312 -2.86460937 8.08890625 -1.66796875 8.0703125 C-0.34732422 8.03550781 -0.34732422 8.03550781 1 8 C1.20970559 3.85906302 1.20970559 3.85906302 0 0 Z " fill="#806FAF" transform="translate(165,137)"/>
<path d="M0 0 C0.80824219 0.10183594 1.61648438 0.20367187 2.44921875 0.30859375 C3.06410156 0.39238281 3.67898438 0.47617188 4.3125 0.5625 C4.3125 1.5525 4.3125 2.5425 4.3125 3.5625 C5.3025 3.8925 6.2925 4.2225 7.3125 4.5625 C5.7313708 5.06942692 4.14748617 5.56776443 2.5625 6.0625 C1.68078125 6.3409375 0.7990625 6.619375 -0.109375 6.90625 C-2.6875 7.5625 -2.6875 7.5625 -6.6875 7.5625 C-7.0175 5.2525 -7.3475 2.9425 -7.6875 0.5625 C-4.59271121 -0.46909626 -3.16118607 -0.41232862 0 0 Z " fill="#1AB7AB" transform="translate(333.6875,106.4375)"/>
<path d="M0 0 C0.99 0.33 1.98 0.66 3 1 C2.34 1 1.68 1 1 1 C1 1.99 1 2.98 1 4 C0.34 4 -0.32 4 -1 4 C-0.67 12.58 -0.34 21.16 0 30 C1.32 30.66 2.64 31.32 4 32 C3.01 32.495 3.01 32.495 2 33 C-1.21924826 30.72309498 -2.75903462 29.35823814 -3.4609375 25.40185547 C-3.60119677 22.23416171 -3.58286582 19.10711747 -3.5 15.9375 C-3.50257812 14.84888672 -3.50515625 13.76027344 -3.5078125 12.63867188 C-3.39943991 3.83339896 -3.39943991 3.83339896 0 0 Z " fill="#7366A9" transform="translate(109,95)"/>
<path d="M0 0 C0.33 0 0.66 0 1 0 C1 15.18 1 30.36 1 46 C0.34 45.34 -0.32 44.68 -1 44 C-2.98 44.99 -4.96 45.98 -7 47 C-7.33 46.34 -7.66 45.68 -8 45 C-5.525 44.505 -5.525 44.505 -3 44 C-3.33 42.02 -3.66 40.04 -4 38 C-3.01 38 -2.02 38 -1 38 C-0.67 25.46 -0.34 12.92 0 0 Z " fill="#5B8B88" transform="translate(291,91)"/>
<path d="M0 0 C0.680625 0.00644531 1.36125 0.01289062 2.0625 0.01953125 C4 0.1875 4 0.1875 7 1.1875 C6.67 3.1675 6.34 5.1475 6 7.1875 C3.36 5.8675 0.72 4.5475 -2 3.1875 C-2.33 4.5075 -2.66 5.8275 -3 7.1875 C-3.66 7.1875 -4.32 7.1875 -5 7.1875 C-5.33 8.1775 -5.66 9.1675 -6 10.1875 C-6.33 10.1875 -6.66 10.1875 -7 10.1875 C-7.29296875 4.1328125 -7.29296875 4.1328125 -7 2.1875 C-3.97455666 0.17053778 -3.38932618 -0.07061096 0 0 Z " fill="#06B7AA" transform="translate(134,124.8125)"/>
<path d="M0 0 C0.66 0 1.32 0 2 0 C2.39832031 0.75925781 2.79664063 1.51851563 3.20703125 2.30078125 C3.73683594 3.29464844 4.26664063 4.28851563 4.8125 5.3125 C5.33457031 6.29863281 5.85664063 7.28476563 6.39453125 8.30078125 C7.7719876 10.61665068 8.99530591 12.23611001 11 14 C10.67 14.66 10.34 15.32 10 16 C9.01830524 14.87720538 8.03972702 13.75168527 7.0625 12.625 C6.51722656 11.99851562 5.97195312 11.37203125 5.41015625 10.7265625 C4 9 4 9 3 7 C2.67 8.32 2.34 9.64 2 11 C1.34 11 0.68 11 0 11 C-0.33 12.32 -0.66 13.64 -1 15 C-1.99 15 -2.98 15 -4 15 C-4 14.34 -4 13.68 -4 13 C-3.34 12.67 -2.68 12.34 -2 12 C-2.66 11.67 -3.32 11.34 -4 11 C-3.71125 10.484375 -3.4225 9.96875 -3.125 9.4375 C-1.71219973 6.37643275 -0.8751483 3.25055082 0 0 Z " fill="#755DB8" transform="translate(143,110)"/>
<path d="M0 0 C0 0.99 0 1.98 0 3 C-1.2065625 3.433125 -1.2065625 3.433125 -2.4375 3.875 C-5.1326468 4.73262568 -5.1326468 4.73262568 -6 7 C-6.23434712 8.9129402 -6.23434712 8.9129402 -6.25 11 C-6.27578125 11.70125 -6.3015625 12.4025 -6.328125 13.125 C-6.21984375 13.74375 -6.1115625 14.3625 -6 15 C-2.76261984 17.15825344 -1.8575839 17.24989882 1.875 17.1875 C2.76058594 17.17460937 3.64617187 17.16171875 4.55859375 17.1484375 C7.10496012 17.06238296 7.10496012 17.06238296 9.9375 16.3125 C10.618125 16.209375 11.29875 16.10625 12 16 C13.8125 17.4375 13.8125 17.4375 15 19 C14.2575 18.79375 13.515 18.5875 12.75 18.375 C10.06300558 17.74435085 10.06300558 17.74435085 8.10546875 18.953125 C4.50384482 20.74391389 0.92459746 20.53072848 -3 20 C-6.0625 18.625 -6.0625 18.625 -8 16 C-8.70814395 12.52950939 -8.7131118 9.47010309 -8 6 C-5.47323961 2.65374976 -3.96066458 1.32022153 0 0 Z " fill="#56C0BA" transform="translate(266,118)"/>
<path d="M0 0 C0.66 0.66 1.32 1.32 2 2 C2.33 1.34 2.66 0.68 3 0 C3.66 0 4.32 0 5 0 C3.68535639 4.60125265 1.96668552 8.22421843 -1 12 C-1.99 12 -2.98 12 -4 12 C-5.11841676 8.64474971 -4.91538821 8.02910146 -3.6875 4.875 C-3.42324219 4.17117187 -3.15898437 3.46734375 -2.88671875 2.7421875 C-2 1 -2 1 0 0 Z " fill="#6150A3" transform="translate(185,134)"/>
<path d="M0 0 C0 1.32 0 2.64 0 4 C0.66 4 1.32 4 2 4 C1.67 5.32 1.34 6.64 1 8 C-1.64 8 -4.28 8 -7 8 C-7.66 6.02 -8.32 4.04 -9 2 C-7.824375 1.7834375 -7.824375 1.7834375 -6.625 1.5625 C-4.19936192 1.04272041 -2.45184765 0 0 0 Z " fill="#503F9C" transform="translate(176,145)"/>
<path d="M0 0 C0.33 0.66 0.66 1.32 1 2 C0.67 2.99 0.34 3.98 0 5 C0.33 5.99 0.66 6.98 1 8 C0.375 10.5625 0.375 10.5625 -1 13 C-3.625 14.3125 -3.625 14.3125 -6 15 C-6 14.01 -6 13.02 -6 12 C-6.66 12 -7.32 12 -8 12 C-7.67 11.01 -7.34 10.02 -7 9 C-6.34 8.67 -5.68 8.34 -5 8 C-3.91852299 6.38240139 -3.91852299 6.38240139 -2.9375 4.5 C-1.08071749 1.08071749 -1.08071749 1.08071749 0 0 Z " fill="#4E3F9C" transform="translate(203,107)"/>
<path d="M0 0 C1.98 0 3.96 0 6 0 C6 0.66 6 1.32 6 2 C7.32 2 8.64 2 10 2 C10 2.99 10 3.98 10 5 C7.5 7.1875 7.5 7.1875 5 9 C4.01 8.34 3.02 7.68 2 7 C2.33 6.34 2.66 5.68 3 5 C1.35 4.67 -0.3 4.34 -2 4 C-1.34 2.68 -0.68 1.36 0 0 Z " fill="#5534AE" transform="translate(384,126)"/>
<path d="M0 0 C2.1875 1.4375 2.1875 1.4375 4 3 C3.67 5.31 3.34 7.62 3 10 C2.01 9.67 1.02 9.34 0 9 C0 7.68 0 6.36 0 5 C-0.99 5.66 -1.98 6.32 -3 7 C-1.68 8.65 -0.36 10.3 1 12 C-2.80666984 10.55609075 -4.26602582 8.65047197 -6 5 C-5.67 4.34 -5.34 3.68 -5 3 C-4.34 3 -3.68 3 -3 3 C-3 2.34 -3 1.68 -3 1 C-2.01 0.67 -1.02 0.34 0 0 Z " fill="#5E53A6" transform="translate(140,140)"/>
<path d="M0 0 C0.33 0.66 0.66 1.32 1 2 C3.31 2 5.62 2 8 2 C8 2.33 8 2.66 8 3 C4.37 3 0.74 3 -3 3 C-3.66 4.98 -4.32 6.96 -5 9 C-4.01 9 -3.02 9 -2 9 C-2 9.66 -2 10.32 -2 11 C-3.65 11.33 -5.3 11.66 -7 12 C-8.85776765 8.86501708 -9.20140476 6.62528568 -9 3 C-6.03 2.01 -3.06 1.02 0 0 Z " fill="#44BDB5" transform="translate(268,104)"/>
<path d="M0 0 C3.3734229 1.44575267 5.61595146 3.2049086 8 6 C8.98185207 8.95814406 9.10812184 11.647715 9.0625 14.75 C9.05347656 15.54921875 9.04445312 16.3484375 9.03515625 17.171875 C9.02355469 17.77515625 9.01195312 18.3784375 9 19 C8.34 19.33 7.68 19.66 7 20 C6.94392578 18.98679687 6.94392578 18.98679687 6.88671875 17.953125 C6.82097656 17.06109375 6.75523437 16.1690625 6.6875 15.25 C6.60048828 13.92742187 6.60048828 13.92742187 6.51171875 12.578125 C5.93017826 9.64822636 4.90902678 8.2556787 3 6 C2.30251417 4.68252676 1.63040043 3.35085807 1 2 C0.67 1.34 0.34 0.68 0 0 Z M1 6 C1.66 6.33 2.32 6.66 3 7 C3 8.98 3 10.96 3 13 C2.67 12.34 2.34 11.68 2 11 C1.34 10.67 0.68 10.34 0 10 C0.66 10 1.32 10 2 10 C1.67 8.68 1.34 7.36 1 6 Z " fill="#514488" transform="translate(208,72)"/>
<path d="M0 0 C0.99 0.33 1.98 0.66 3 1 C3 1.66 3 2.32 3 3 C2.34 3.66 1.68 4.32 1 5 C1.37125 5.5775 1.7425 6.155 2.125 6.75 C3 9 3 9 2.125 11.25 C1.75375 11.8275 1.3825 12.405 1 13 C0.34 13 -0.32 13 -1 13 C-0.67 11.68 -0.34 10.36 0 9 C-1.32 9.33 -2.64 9.66 -4 10 C-4.8125 7.8125 -4.8125 7.8125 -5 5 C-2.5625 2.1875 -2.5625 2.1875 0 0 Z " fill="#6A4DAD" transform="translate(180,69)"/>
<path d="M0 0 C0.99 0 1.98 0 3 0 C3 0.66 3 1.32 3 2 C2.34 2 1.68 2 1 2 C0.80664062 2.62648438 0.61328125 3.25296875 0.4140625 3.8984375 C0.15367187 4.71570313 -0.10671875 5.53296875 -0.375 6.375 C-0.63023437 7.18710938 -0.88546875 7.99921875 -1.1484375 8.8359375 C-2 11 -2 11 -4 13 C-4.33 12.34 -4.66 11.68 -5 11 C-5.99 11.66 -6.98 12.32 -8 13 C-7.39301257 8.87248551 -5.96189209 5.6678852 -4 2 C-2.875 5.75 -2.875 5.75 -4 8 C-3.34 8 -2.68 8 -2 8 C-1.7834375 6.576875 -1.7834375 6.576875 -1.5625 5.125 C-1 2 -1 2 0 0 Z " fill="#483998" transform="translate(213,93)"/>
<path d="M0 0 C0 3 0 3 -1.9375 5.6875 C-3.86333435 8.78050669 -4.29961804 9.88678048 -4.625 13.3125 C-4.74875 14.529375 -4.8725 15.74625 -5 17 C-5.66 17.33 -6.32 17.66 -7 18 C-8.48071979 9.6092545 -8.48071979 9.6092545 -7 6 C-4.8144892 3.7987661 -2.46798718 1.87515475 0 0 Z " fill="#18A198" transform="translate(153,92)"/>
<path d="M0 0 C4.95 0.33 9.9 0.66 15 1 C15 3.64 15 6.28 15 9 C14.34 9 13.68 9 13 9 C13 7.02 13 5.04 13 3 C9.04 3 5.08 3 1 3 C0.67 2.01 0.34 1.02 0 0 Z " fill="#7664AA" transform="translate(415,127)"/>
<path d="M0 0 C1.875 1.25 1.875 1.25 3 3 C3 4.32 3 5.64 3 7 C1.35 7 -0.3 7 -2 7 C-1.01 6.67 -0.02 6.34 1 6 C1 5.01 1 4.02 1 3 C-0.58367747 3.14204741 -2.16693318 3.28880153 -3.75 3.4375 C-4.63171875 3.51871094 -5.5134375 3.59992188 -6.421875 3.68359375 C-8.69350452 3.96238465 -10.79851823 4.38790577 -13 5 C-13.33 4.34 -13.66 3.68 -14 3 C-5.04782609 -0.70434783 -5.04782609 -0.70434783 0 0 Z " fill="#45A69E" transform="translate(342,111)"/>
<path d="M0 0 C0.66 0.33 1.32 0.66 2 1 C1.67 1.66 1.34 2.32 1 3 C0.01 3 -0.98 3 -2 3 C-2 3.66 -2 4.32 -2 5 C-2.99 5 -3.98 5 -5 5 C-5 5.99 -5 6.98 -5 8 C-9.75481646 7.42365861 -12.97048212 5.44931479 -17 3 C-17 2.34 -17 1.68 -17 1 C-13.54074837 2.2491742 -10.85306797 3.67527795 -8 6 C-7.05125 5.195625 -6.1025 4.39125 -5.125 3.5625 C-3.42067644 2.11753003 -2.00519014 1.00259507 0 0 Z " fill="#5FBDBA" transform="translate(182,89)"/>
<path d="M0 0 C0.66 0 1.32 0 2 0 C2 0.99 2 1.98 2 3 C0.35 3.66 -1.3 4.32 -3 5 C-2.01 6.32 -1.02 7.64 0 9 C-2.25 9.25 -2.25 9.25 -5 9 C-7.3125 7.125 -7.3125 7.125 -9 5 C-9 4.34 -9 3.68 -9 3 C-4.545 2.505 -4.545 2.505 0 2 C0 1.34 0 0.68 0 0 Z " fill="#2FA9A0" transform="translate(276,115)"/>
<path d="M0 0 C6.15234375 0.5859375 6.15234375 0.5859375 8 1 C8.33 1.66 8.66 2.32 9 3 C7.02 3 5.04 3 3 3 C2.67 3.66 2.34 4.32 2 5 C-0.62581138 6.57548683 -1.87099787 7 -5 7 C-4.34 5.68 -3.68 4.36 -3 3 C-2.34 3 -1.68 3 -1 3 C-0.67 2.01 -0.34 1.02 0 0 Z " fill="#6D58B0" transform="translate(128,119)"/>
<path d="M0 0 C2.97 0.495 2.97 0.495 6 1 C6 1.33 6 1.66 6 2 C4.35 2 2.7 2 1 2 C1 3.98 1 5.96 1 8 C3.97 8.99 6.94 9.98 10 11 C10 11.66 10 12.32 10 13 C5.54993405 11.96165128 2.11767846 11.05883923 -2 9 C-1.34 6.03 -0.68 3.06 0 0 Z " fill="#51AFA9" transform="translate(224,125)"/>
<path d="M0 0 C-0.33 2.31 -0.66 4.62 -1 7 C-1.66 7 -2.32 7 -3 7 C-3 5.35 -3 3.7 -3 2 C-10.26 2 -17.52 2 -25 2 C-25 1.67 -25 1.34 -25 1 C-21.02084729 0.83299906 -17.04167558 0.66645506 -13.0625 0.5 C-11.35803711 0.42845703 -11.35803711 0.42845703 -9.61914062 0.35546875 C-7.99975586 0.28779297 -7.99975586 0.28779297 -6.34765625 0.21875 C-5.34742432 0.17685547 -4.34719238 0.13496094 -3.31665039 0.09179688 C-1 0 -1 0 0 0 Z " fill="#604B9A" transform="translate(430,105)"/>
<path d="M0 0 C6.75 0.875 6.75 0.875 9 2 C8.88637738 3.4800841 8.75877092 4.95910074 8.625 6.4375 C8.55539063 7.26121094 8.48578125 8.08492187 8.4140625 8.93359375 C8.27742187 9.61550781 8.14078125 10.29742187 8 11 C7.01 11.495 7.01 11.495 6 12 C5.01 11.34 4.02 10.68 3 10 C3.99 10 4.98 10 6 10 C6 7.69 6 5.38 6 3 C5.195625 2.87625 4.39125 2.7525 3.5625 2.625 C2.716875 2.41875 1.87125 2.2125 1 2 C0.67 1.34 0.34 0.68 0 0 Z " fill="#3DA097" transform="translate(247,92)"/>
<path d="M0 0 C0 1.98 0 3.96 0 6 C-2.31 5.67 -4.62 5.34 -7 5 C-6.625 2.5625 -6.625 2.5625 -6 0 C-3.50907189 -1.24546405 -2.58919267 -0.7767578 0 0 Z " fill="#05BAAC" transform="translate(253,95)"/>
<path d="M0 0 C5.75 3.75 5.75 3.75 8 6 C8 6.99 8 7.98 8 9 C4.4213696 7.34832443 1.25179812 5.21713508 -2 3 C-1 1 -1 1 0 0 Z " fill="#7058B8" transform="translate(390,94)"/>
<path d="M0 0 C-0.33 0.99 -0.66 1.98 -1 3 C-2.32 3 -3.64 3 -5 3 C-5.28875 3.639375 -5.5775 4.27875 -5.875 4.9375 C-7 7 -7 7 -9 8 C-8.20944111 2.46608774 -5.52734603 0 0 0 Z M-11 9 C-10.67 9.99 -10.34 10.98 -10 12 C-10.66 12 -11.32 12 -12 12 C-11.67 11.01 -11.34 10.02 -11 9 Z " fill="#04BBA5" transform="translate(160,91)"/>
<path d="M0 0 C0.33 0 0.66 0 1 0 C1 1.65 1 3.3 1 5 C2.32 4.67 3.64 4.34 5 4 C5 2.68 5 1.36 5 0 C5.66 0 6.32 0 7 0 C6.6641593 3.10652645 6.40950721 4.60414303 4.125 6.8125 C2 8 2 8 -1 8 C-1.04241723 5.66705225 -1.04092937 3.33297433 -1 1 C-0.67 0.67 -0.34 0.34 0 0 Z " fill="#63619C" transform="translate(174,84)"/>
<path d="M0 0 C1.32 0 2.64 0 4 0 C4.66 1.65 5.32 3.3 6 5 C4.02 5.99 4.02 5.99 2 7 C0.68 5.35 -0.64 3.7 -2 2 C-1.34 1.34 -0.68 0.68 0 0 Z " fill="#6746B8" transform="translate(152,81)"/>
<path d="M0 0 C1.98 0 3.96 0 6 0 C6 1.98 6 3.96 6 6 C4.68 6 3.36 6 2 6 C0 3 0 3 0 0 Z " fill="#1E9996" transform="translate(352,129)"/>
<path d="M0 0 C1.32 0.33 2.64 0.66 4 1 C4.33 2.98 4.66 4.96 5 7 C2.69 6.67 0.38 6.34 -2 6 C-1.34 4.02 -0.68 2.04 0 0 Z " fill="#05BBAB" transform="translate(283,128)"/>
<path d="M0 0 C3.96 0 7.92 0 12 0 C12.33 2.31 12.66 4.62 13 7 C11.68 7.33 10.36 7.66 9 8 C8.67 7.01 8.34 6.02 8 5 C8.99 3.68 9.98 2.36 11 1 C7.37 1 3.74 1 0 1 C0 0.67 0 0.34 0 0 Z " fill="#5233A9" transform="translate(415,107)"/>
<path d="M0 0 C0.33 0 0.66 0 1 0 C0.45131491 5.26737687 -0.46201716 10.28817969 -3 15 C-5.1875 16.5 -5.1875 16.5 -7 17 C-5.49637741 13.21283842 -3.94512999 9.44754813 -2.375 5.6875 C-1.92898437 4.61886719 -1.48296875 3.55023438 -1.0234375 2.44921875 C-0.68570313 1.64097656 -0.34796875 0.83273438 0 0 Z " fill="#857EB5" transform="translate(208,92)"/>
<path d="M0 0 C4.29 0.33 8.58 0.66 13 1 C13 1.66 13 2.32 13 3 C9.04 3 5.08 3 1 3 C0.67 2.01 0.34 1.02 0 0 Z " fill="#766BA5" transform="translate(151,155)"/>
<path d="M0 0 C0.66 0 1.32 0 2 0 C2 1.65 2 3.3 2 5 C-1.14930893 6.04976964 -3.38814456 6.10131595 -6.6875 6.0625 C-7.68136719 6.05347656 -8.67523438 6.04445312 -9.69921875 6.03515625 C-10.83810547 6.01775391 -10.83810547 6.01775391 -12 6 C-12 5.67 -12 5.34 -12 5 C-8.7 5 -5.4 5 -2 5 C-1.34 3.35 -0.68 1.7 0 0 Z " fill="#4A3896" transform="translate(165,150)"/>
<path d="M0 0 C1.98 0 3.96 0 6 0 C5.34 0.66 4.68 1.32 4 2 C4 2.99 4 3.98 4 5 C5.32 5.66 6.64 6.32 8 7 C5.69 7 3.38 7 1 7 C0.67 4.69 0.34 2.38 0 0 Z " fill="#38B8AC" transform="translate(265,124)"/>
<path d="M0 0 C0.99 0.33 1.98 0.66 3 1 C3 1.66 3 2.32 3 3 C1.03852126 4.38938077 -0.96166576 5.7260411 -3 7 C-3.66 6.34 -4.32 5.68 -5 5 C-3.35 3.35 -1.7 1.7 0 0 Z " fill="#6C5AB2" transform="translate(180,69)"/>
<path d="M0 0 C1.65 0.33 3.3 0.66 5 1 C2.375 5.875 2.375 5.875 -1 7 C-0.67 4.69 -0.34 2.38 0 0 Z " fill="#6858A8" transform="translate(187,70)"/>
<path d="M0 0 C1.32 0.33 2.64 0.66 4 1 C3.875 3.3125 3.875 3.3125 3 6 C-0.0625 7.8125 -0.0625 7.8125 -3 9 C-3.33 8.34 -3.66 7.68 -4 7 C-2.35 6.67 -0.7 6.34 1 6 C0.67 4.02 0.34 2.04 0 0 Z " fill="#5CC4BC" transform="translate(287,129)"/>
<path d="M0 0 C2.97 0.495 2.97 0.495 6 1 C6 2.32 6 3.64 6 5 C3.69 5.33 1.38 5.66 -1 6 C-0.67 5.01 -0.34 4.02 0 3 C0 2.01 0 1.02 0 0 Z " fill="#1CC8BC" transform="translate(339,117)"/>
<path d="M0 0 C0.33 0 0.66 0 1 0 C1.33 1.98 1.66 3.96 2 6 C-1.2830098 7.6415049 -4.42545033 6.51888624 -8 6 C-8 5.34 -8 4.68 -8 4 C-5.36 4 -2.72 4 0 4 C0 2.68 0 1.36 0 0 Z " fill="#3AAFA6" transform="translate(301,131)"/>
<path d="M0 0 C1.258125 -0.04125 2.51625 -0.0825 3.8125 -0.125 C4.52019531 -0.14820312 5.22789062 -0.17140625 5.95703125 -0.1953125 C8 0 8 0 11 2 C10.67 2.66 10.34 3.32 10 4 C6.7 3.34 3.4 2.68 0 2 C0 1.34 0 0.68 0 0 Z " fill="#33948F" transform="translate(308,104)"/>
<path d="M0 0 C3.10044264 2.80794805 3.73595485 4.77527764 4 9 C3.01 10.485 3.01 10.485 2 12 C0.26043342 10.26043342 0.62809614 7.8063378 0.4375 5.4375 C0.35371094 4.42558594 0.26992187 3.41367188 0.18359375 2.37109375 C0.12300781 1.58863281 0.06242188 0.80617188 0 0 Z " fill="#3999BC" transform="translate(141,126)"/>
<path d="M0 0 C0.66 0.33 1.32 0.66 2 1 C1.67 2.65 1.34 4.3 1 6 C0.01 6 -0.98 6 -2 6 C-2.33 6.66 -2.66 7.32 -3 8 C-3.66 7.01 -4.32 6.02 -5 5 C-3.625 3.5 -3.625 3.5 -2 2 C-1.34 2 -0.68 2 0 2 C0 1.34 0 0.68 0 0 Z " fill="#11BDB6" transform="translate(131,130)"/>
<path d="M0 0 C3.3 0 6.6 0 10 0 C10 0.66 10 1.32 10 2 C6.7 2.33 3.4 2.66 0 3 C0 2.01 0 1.02 0 0 Z " fill="#4DCDC1" transform="translate(235,91)"/>
<path d="M0 0 C1 2 1 2 0.0625 5.125 C-0.288125 6.07375 -0.63875 7.0225 -1 8 C-1.99 8 -2.98 8 -4 8 C-4.25 5.6875 -4.25 5.6875 -4 3 C-2 1.1875 -2 1.1875 0 0 Z " fill="#7968B4" transform="translate(145,93)"/>
<path d="M0 0 C-1.1875 2 -1.1875 2 -3 4 C-5.6875 4.25 -5.6875 4.25 -8 4 C-8 3.01 -8 2.02 -8 1 C-5.29120665 -0.35439668 -2.99066732 -0.06501451 0 0 Z " fill="#1BA69D" transform="translate(287,134)"/>
<path d="M0 0 C0.33 0 0.66 0 1 0 C1.33 4.29 1.66 8.58 2 13 C0.11656068 9.23312136 -0.22057835 7.97041037 0 4 C-0.66 4 -1.32 4 -2 4 C-1.34 2.68 -0.68 1.36 0 0 Z " fill="#3B918A" transform="translate(256,119)"/>
<path d="M0 0 C0 3.30941204 -0.40339294 5.11090151 -2 8 C-4.625 8.8125 -4.625 8.8125 -7 9 C-6.02180976 7.68677212 -5.0424189 6.37443848 -4.0625 5.0625 C-3.51722656 4.33160156 -2.97195312 3.60070312 -2.41015625 2.84765625 C-1 1 -1 1 0 0 Z " fill="#726EB2" transform="translate(200,109)"/>
<path d="M0 0 C2 2 2 2 2.25 5.5 C2 9 2 9 0 11 C-1.37432457 7.18243176 -0.67975039 3.92744671 0 0 Z " fill="#6A61A2" transform="translate(209,83)"/>
<path d="M0 0 C1 3 1 3 1 5 C1.66 5.66 2.32 6.32 3 7 C0.11424181 6.60196439 -0.82189513 6.20990931 -2.75 3.9375 C-3.1625 3.298125 -3.575 2.65875 -4 2 C-2.68 1.34 -1.36 0.68 0 0 Z " fill="#4C379A" transform="translate(140,144)"/>
<path d="M0 0 C2.31 0 4.62 0 7 0 C5.6875 2 5.6875 2 4 4 C3.01 4 2.02 4 1 4 C0.67 2.68 0.34 1.36 0 0 Z " fill="#523FA7" transform="translate(145,149)"/>
<path d="" fill="#000000" transform="translate(0,0)"/>
<path d="" fill="#000000" transform="translate(0,0)"/>
<path d="" fill="#000000" transform="translate(0,0)"/>
<path d="" fill="#000000" transform="translate(0,0)"/>
<path d="" fill="#000000" transform="translate(0,0)"/>
<path d="" fill="#000000" transform="translate(0,0)"/>
<path d="" fill="#000000" transform="translate(0,0)"/>
<path d="" fill="#000000" transform="translate(0,0)"/>
<path d="" fill="#000000" transform="translate(0,0)"/>
<path d="" fill="#000000" transform="translate(0,0)"/>
<path d="" fill="#000000" transform="translate(0,0)"/>
<path d="" fill="#000000" transform="translate(0,0)"/>
<path d="" fill="#000000" transform="translate(0,0)"/>
<path d="" fill="#000000" transform="translate(0,0)"/>
<path d="" fill="#000000" transform="translate(0,0)"/>
<path d="" fill="#000000" transform="translate(0,0)"/>
</svg>
